<svg t="1717485638190" class="icon" viewBox="0 0 1024 1024" version="1.1" xmlns="http://www.w3.org/2000/svg" p-id="6260"
    width="64" height="64">
    <path
        d="M64 848c0-20.62 16.71-37.33 37.33-37.33h821.33c20.62 0 37.33 16.71 37.33 37.33 0 20.62-16.71 37.33-37.33 37.33H101.33C80.71 885.33 64 868.62 64 848z m37.33-119.47c-7.44 0-22.46-7.47-22.46-7.47C71.44 713.58 64 706.1 64 691.19V332.81c0-22.39 14.88-37.33 37.33-37.33 7.44 0 14.88 0 22.46 7.47l238.88 179.19c14.88 14.95 22.46 37.33 7.44 52.28l-7.44 7.47-238.88 179.2c-7.58-0.04-15.02 7.44-22.46 7.44z m37.34-321.06v209.05L273.13 512 138.67 407.47z m784 141.86H512c-20.62 0-37.33-16.71-37.33-37.33 0-20.62 16.71-37.33 37.33-37.33h410.67c20.62 0 37.33 16.71 37.33 37.33 0 20.62-16.71 37.33-37.33 37.33z m0-336H101.33C80.71 213.33 64 196.62 64 176c0-20.62 16.71-37.33 37.33-37.33h821.33c20.62 0 37.33 16.71 37.33 37.33 0.01 20.62-16.7 37.33-37.32 37.33z"
        p-id="6261" fill="#2C7EF6"></path>
</svg>